<?xml version="1.0" standalone="no"?><!DOCTYPE svg PUBLIC "-//W3C//DTD SVG 1.1//EN" "http://www.w3.org/Graphics/SVG/1.1/DTD/svg11.dtd"><svg class="icon" width="200px" height="200.00px" viewBox="0 0 1024 1024" version="1.1" xmlns="http://www.w3.org/2000/svg"><path d="M222.3104 128h471.488c10.3808 0 20.3008 4.352 27.4304 12.032l164.48 175.2704a38.784 38.784 0 0 1 10.2912 26.368V800c0 53.0176-42.2272 96-94.3104 96H222.3104C170.24 896 128 853.0176 128 800v-576c0-53.0176 42.2272-96 94.3104-96z" fill="#EDEDED" /><path d="M474.24 650.432l36.2112-146.2784h0.7168l36.9664 146.816A36.2752 36.2752 0 0 0 583.296 678.4c16.7168 0 31.3728-11.136 35.8528-27.2384l51.8016-185.984a28.352 28.352 0 0 0-19.0848-34.7392 26.1376 26.1376 0 0 0-32.9984 18.9056l-35.9296 149.4656h-0.7296l-37.7472-150.5664A34.1504 34.1504 0 0 0 511.36 422.4c-15.68 0-29.376 10.624-33.28 25.792l-38.3104 148.4544H439.04l-34.688-147.5328a25.6768 25.6768 0 0 0-32.512-18.6752 28.4672 28.4672 0 0 0-19.1616 34.56l49.5616 185.5616A37.5296 37.5296 0 0 0 438.4896 678.4a36.8256 36.8256 0 0 0 35.7504-27.968z" fill="#92B4F0" /><path d="M713.344 132.4416l176.128 188.48a12.8 12.8 0 0 1-9.3568 21.5424H742.4a51.2 51.2 0 0 1-51.2-51.2V141.184a12.8 12.8 0 0 1 22.144-8.7424z" fill="#DCDCDC" /></svg>