<?xml version="1.0" standalone="no"?><!DOCTYPE svg PUBLIC "-//W3C//DTD SVG 1.1//EN" "http://www.w3.org/Graphics/SVG/1.1/DTD/svg11.dtd"><svg class="icon" width="200px" height="200.00px" viewBox="0 0 1024 1024" version="1.1" xmlns="http://www.w3.org/2000/svg"><path d="M222.3104 128h471.488c10.3808 0 20.3008 4.352 27.4304 12.032l164.48 175.2704a38.784 38.784 0 0 1 10.2912 26.368V800c0 53.0176-42.2272 96-94.3104 96H222.3104C170.24 896 128 853.0176 128 800v-576c0-53.0176 42.2272-96 94.3104-96z" fill="#EDEDED" /><path d="M676.0704 482.3808c-2.304-14.08-12.7104-24.6528-27.7248-25.8176-9.2544-1.1776-18.496-7.04-23.1296-15.2576-4.608-8.2176-4.608-18.7904-1.152-28.1728 5.7856-12.9152 2.304-28.1728-8.0896-37.568a201.7536 201.7536 0 0 0-48.5376-28.16c-12.7104-4.6976-27.7504 0-35.84 11.7376-5.7856 8.2048-15.04 12.9024-25.4208 12.9024a30.0544 30.0544 0 0 1-24.2816-12.9024c-9.2416-11.7376-24.256-16.4352-36.992-11.7376a202.0736 202.0736 0 0 0-48.512 28.16c-11.5712 9.3952-15.04 24.6528-9.2416 38.7328 4.608 9.3952 3.4688 19.968-1.152 28.1728a29.952 29.952 0 0 1-23.1296 15.2576c-13.9008 1.088-25.3312 11.712-27.7632 25.8304-1.152 9.3824-2.304 18.7776-2.304 28.16 0 9.3952 1.152 19.968 4.608 29.3504 2.3296 14.08 12.736 24.6528 27.7504 25.8304 9.2416 1.1648 18.5088 7.04 23.1168 15.2576 4.6208 8.2048 4.6208 18.7776 1.1392 28.16a32.832 32.832 0 0 0 8.1024 37.568c14.848 11.6352 31.1808 21.12 48.5504 28.16 3.456 1.1776 6.9248 2.3552 10.3936 2.3552 9.2672 0 19.6608-4.6976 24.2944-15.2576 5.76-8.2176 15.0272-12.9152 25.4208-12.9152a30.016 30.016 0 0 1 24.2688 12.9152c9.2416 11.7376 24.2816 16.4352 36.992 11.7376 17.344-7.04 34.6624-16.4352 48.5376-28.16 10.4064-8.2304 13.8752-24.6656 8.0896-37.568-4.6208-9.3952-3.456-19.968 1.152-28.1728 4.6464-8.2176 12.7232-14.08 23.1296-15.2576 13.888-1.1008 25.2928-11.7248 27.7248-25.8304 1.1648-9.3824 2.3296-18.7776 2.3296-28.16 0-9.3952-1.152-19.968-2.3296-29.3504" fill="#94B9D5" /><path d="M506.176 579.8016c-36.9664 0-67.0464-30.5152-67.0464-68.0832 0-37.5552 30.0544-68.0704 67.0464-68.0704 36.992 0 67.0336 30.5152 67.0336 68.0704 0 37.568-30.0544 68.096-67.0336 68.096" fill="#EDEDED" /><path d="M506.176 470.656c-21.952 0-40.4608 18.7648-40.4608 41.0752 0 22.2976 18.4832 41.088 40.448 41.088 21.952 0 40.4608-18.7904 40.4608-41.088 0-22.3104-18.4832-41.088-40.448-41.088" fill="#94B9D5" /><path d="M713.344 132.4416l176.128 188.48a12.8 12.8 0 0 1-9.3568 21.5424H742.4a51.2 51.2 0 0 1-51.2-51.2V141.184a12.8 12.8 0 0 1 22.144-8.7424z" fill="#DCDCDC" /></svg>