<?xml version="1.0" standalone="no"?><!DOCTYPE svg PUBLIC "-//W3C//DTD SVG 1.1//EN" "http://www.w3.org/Graphics/SVG/1.1/DTD/svg11.dtd"><svg class="icon" width="200px" height="200.00px" viewBox="0 0 1024 1024" version="1.1" xmlns="http://www.w3.org/2000/svg"><path d="M222.3104 128h471.488c10.3808 0 20.3008 4.352 27.4304 12.032l164.48 175.2704a38.784 38.784 0 0 1 10.2912 26.368V800c0 53.0176-42.2272 96-94.3104 96H222.3104C170.24 896 128 853.0176 128 800v-576c0-53.0176 42.2272-96 94.3104-96z" fill="#EDEDED" /><path d="M389.9904 613.5424c7.232 3.0592 12.9792 2.56 17.2416-1.4848 4.2752-4.0448 6.1824-10.7648 5.76-20.1728-0.2304-3.4944-1.664-6.8352-4.2752-9.9968-2.6368-3.1744-7.1168-5.9648-13.4656-8.3712l-64.384-25.2544c-3.712-1.536-5.5808-2.8544-5.5808-3.9424 0-1.088 1.8688-2.304 5.5936-3.6096l66.9952-26.5728c10.5088-3.4944 15.7696-10.9312 15.7696-22.3104 0-17.28-7.8848-22.848-23.6544-16.7296l-104.448 44.288c-5.4656 2.4064-9.6256 5.8496-12.4672 10.3424a27.776 27.776 0 0 0-0.1664 29.3632c2.7392 4.5824 7.168 8.192 13.2992 10.816l103.7824 43.6352z m63.7184 76.1088c5.0304 1.7408 10.1248 2.0224 15.2704 0.8192s8.704-4.6464 10.6752-10.3424l88.6784-270.9632c2.176-6.336 1.92-11.3664-0.8192-15.0912-2.7392-3.712-6.6304-6.4512-11.6608-8.192-6.3488-2.1888-11.8784-2.4704-16.5888-0.832-4.7104 1.6512-8.0512 5.632-10.0224 11.9808l-88.6656 271.616a12.7744 12.7744 0 0 0-0.4992 7.2192c0.5504 2.1888 1.4848 4.2112 2.7904 6.0672 1.3184 1.856 2.9568 3.456 4.928 4.7616 1.9712 1.3056 3.9424 2.304 5.9136 2.944z m146.816-82.3424c3.712 8.3072 10.6112 10.3808 20.6848 6.2336l103.7824-43.6352c6.1312-2.624 10.56-6.2336 13.312-10.8288a27.776 27.776 0 0 0 4.096-14.4256c0-5.248-1.3696-10.176-4.096-14.7712-2.752-4.5824-6.9632-8.0896-12.6592-10.496l-104.448-44.288c-5.0304-2.176-9.2416-2.624-12.6336-1.3056-3.392 1.3056-5.9648 3.8272-7.7184 7.552a41.0752 41.0752 0 0 0-2.624 14.7584c0 8.5248 5.0304 14.5408 15.104 18.048l66.9952 26.56c3.7248 1.536 5.5936 2.7392 5.5936 3.6096 0 0.8704-1.8688 2.176-5.5936 3.9424l-64.3712 25.2544c-6.3488 2.4064-10.8288 5.1968-13.4656 8.3712-2.624 3.1616-4.0448 6.5024-4.2624 9.9968-0.2176 5.4656 0.5504 10.6112 2.304 15.424z" fill="#7ECCF0" /><path d="M713.344 132.4416l176.128 188.48a12.8 12.8 0 0 1-9.3568 21.5424H742.4a51.2 51.2 0 0 1-51.2-51.2V141.184a12.8 12.8 0 0 1 22.144-8.7424z" fill="#DCDCDC" /></svg>