<?xml version="1.0" standalone="no"?><!DOCTYPE svg PUBLIC "-//W3C//DTD SVG 1.1//EN" "http://www.w3.org/Graphics/SVG/1.1/DTD/svg11.dtd"><svg class="icon" width="200px" height="200.00px" viewBox="0 0 1024 1024" version="1.1" xmlns="http://www.w3.org/2000/svg"><path d="M222.3104 128h471.488c10.3808 0 20.3008 4.352 27.4304 12.032l164.48 175.2704a38.784 38.784 0 0 1 10.2912 26.368V800c0 53.0176-42.2272 96-94.3104 96H222.3104C170.24 896 128 853.0176 128 800v-576c0-53.0176 42.2272-96 94.3104-96z" fill="#EDEDED" /><path d="M415.0656 409.6c8.448 0 12.8 4.3392 12.8 12.7488 0 7.1168-3.136 11.264-9.2672 12.2496l-1.7408 0.192-1.792 0.0256h-16.2944c-8.2304 0-12.7616 3.8272-13.8752 11.8528l-0.2048 2.0992-0.064 2.176v52.3264c0 17.4848-8.2048 29.2096-24.4992 33.6256 14.2592 5.824 22.3232 15.5264 24.1152 29.056l0.2944 2.944 0.0896 3.0336v52.5824c0 9.1008 3.4944 14.2848 10.4448 15.552l1.8048 0.2432 1.8944 0.0768h16.2944c8.448 0 12.8 4.2368 12.8 12.4672 0 6.912-3.072 11.0848-9.1136 12.352l-1.7152 0.2688-1.9712 0.128h-21.824c-12.8384 0-22.7584-4.1216-29.5808-12.2624-4.9664-6.016-7.936-13.5936-8.9216-22.7712l-0.2688-3.52-0.1024-3.6224V573.568c0-7.7568-1.6128-13.2736-4.7744-16.3968-3.6864-4.16-10.3808-6.5664-19.9808-7.104-6.3744-1.024-9.6128-5.248-9.6128-12.4416 0-7.2064 3.2384-11.4432 9.664-12.4928 9.4208-0.7936 16.2176-3.1616 19.9168-6.8224 2.3936-2.7392 3.8912-6.5408 4.48-11.4048l0.2304-2.5216 0.0768-2.752v-49.5872c0-12.672 3.072-22.656 9.28-30.1696 5.5936-6.912 13.3504-10.8288 23.3856-11.9424l3.072-0.256 3.136-0.0768h21.824z m215.68 0c12.8512 0 22.7712 4.1216 29.5936 12.2624 4.9664 6.016 7.936 13.5936 8.9216 22.7712l0.2688 3.52 0.1024 3.6224v49.856c0 7.7568 1.6128 13.2736 4.7744 16.3968 3.6864 4.16 10.3808 6.5664 19.9808 7.104 6.3744 1.024 9.6128 5.248 9.6128 12.4416 0 7.2064-3.2384 11.4432-9.664 12.4928-9.4208 0.7936-16.2176 3.1616-19.9168 6.8224-2.3936 2.7392-3.8912 6.5408-4.48 11.4048l-0.2304 2.5216-0.0768 2.752v49.5872c0 12.672-3.072 22.656-9.28 30.1696-5.5936 6.912-13.3504 10.8288-23.3856 11.9424l-3.072 0.256-3.136 0.0768h-21.824c-8.448 0-12.8-4.3392-12.8-12.7488 0-7.1168 3.136-11.264 9.2672-12.2496l1.7408-0.192 1.792-0.0256h16.2944c8.2304 0 12.7616-3.8272 13.8752-11.8528l0.2048-2.0992 0.064-2.176v-52.3264c0-17.4848 8.2048-29.2096 24.4992-33.6256-14.2592-5.824-22.3232-15.5264-24.1152-29.056l-0.2944-2.944-0.0896-3.0336V450.688c0-9.1008-3.4944-14.2848-10.4448-15.552l-1.8048-0.2432-1.8944-0.0768h-16.2944c-8.448 0-12.8-4.2368-12.8-12.4672 0-6.912 3.072-11.0848 9.1136-12.352l1.7152-0.2688 1.9712-0.128h21.824z m-87.3472 166.5152c7.7184 0 14.272 3.1232 19.3792 9.28 4.8512 6.1824 7.3472 14.272 7.3472 23.8976a61.632 61.632 0 0 1-12.8512 38.3104c-6.7456 9.2672-13.2864 12.8256-19.456 10.624-5.504-1.9968-6.0672-9.9328-2.5088-13.568l1.6256-1.7152 1.216-1.4976 2.7008-3.9808c4.6976-6.1824 6.7456-12.0064 7.7568-17.92a21.952 21.952 0 0 1-7.1424 1.1264c-6.1696 0-11.3664-2.176-15.7312-6.4896-4.224-4.16-6.2976-9.472-6.2976-15.7952 0-6.7456 2.304-12.1344 6.848-16.064 4.2496-4.1856 9.92-6.208 17.1136-6.208z m-78.3616 1.5104c-5.3376 0-9.7792 1.5104-13.248 4.6208l-1.408 1.4336c-4.1344 3.8144-6.1184 8.704-6.1184 14.72 0 5.888 1.92 10.56 6.1312 14.72 3.7888 3.7376 8.8704 5.76 14.6432 5.76 5.632 0 10.4704-1.92 14.8992-5.76 4.1344-4.3264 6.144-9.088 6.144-14.72 0-5.76-2.0864-10.752-6.1184-14.7328a20.0064 20.0064 0 0 0-14.9248-6.0416z m0-92.3392c6.3744 0 11.52 2.048 16 6.4896 4.3264 4.2624 6.5792 9.6512 6.5792 15.7952 0 6.0416-2.176 11.1616-6.6176 15.8208-4.7488 4.1088-9.9328 6.1824-15.9616 6.1824-6.1824 0-11.648-2.176-15.744-6.208a20.9664 20.9664 0 0 1-6.5664-15.7952c0-5.6064 1.6512-10.368 4.992-14.1824l1.5488-1.5744c3.8912-4.3904 9.2416-6.528 15.7696-6.528z" fill="#B591D7" /><path d="M713.344 132.4416l176.128 188.48a12.8 12.8 0 0 1-9.3568 21.5424H742.4a51.2 51.2 0 0 1-51.2-51.2V141.184a12.8 12.8 0 0 1 22.144-8.7424z" fill="#DCDCDC" /></svg>