<?xml version="1.0" standalone="no"?><!DOCTYPE svg PUBLIC "-//W3C//DTD SVG 1.1//EN" "http://www.w3.org/Graphics/SVG/1.1/DTD/svg11.dtd"><svg class="icon" width="200px" height="200.00px" viewBox="0 0 1024 1024" version="1.1" xmlns="http://www.w3.org/2000/svg"><path d="M102.4 153.6m76.8 0l665.6 0q76.8 0 76.8 76.8l0 563.2q0 76.8-76.8 76.8l-665.6 0q-76.8 0-76.8-76.8l0-563.2q0-76.8 76.8-76.8Z" fill="#99D1F0" /><path d="M700.9792 546.5856l126.72 144.8704A30.72 30.72 0 0 1 804.5952 742.4H358.4l171.2896-195.8144c47.3088-46.1184 123.9936-46.1184 171.2896 0z" fill="#6D8EE5" /><path d="M477.8624 593.9456L614.4 742.4H237.5296a25.6 25.6 0 0 1-18.8416-42.9312l97.0496-105.5232c44.7616-40.9984 117.3632-40.9984 162.1248 0z" fill="#78A9E8" /><path d="M307.2 409.6m-51.2 0a51.2 51.2 0 1 0 102.4 0 51.2 51.2 0 1 0-102.4 0Z" fill="#78A9E8" /></svg>