<?xml version="1.0" standalone="no"?><!DOCTYPE svg PUBLIC "-//W3C//DTD SVG 1.1//EN" "http://www.w3.org/Graphics/SVG/1.1/DTD/svg11.dtd"><svg class="icon" width="200px" height="200.00px" viewBox="0 0 1024 1024" version="1.1" xmlns="http://www.w3.org/2000/svg"><path d="M222.3104 128h471.488c10.3808 0 20.3008 4.352 27.4304 12.032l164.48 175.2704a38.784 38.784 0 0 1 10.2912 26.368V800c0 53.0176-42.2272 96-94.3104 96H222.3104C170.24 896 128 853.0176 128 800v-576c0-53.0176 42.2272-96 94.3104-96z" fill="#EDEDED" /><path d="M470.784 635.456V554.496h63.36c17.152 0 31.744-2.496 43.776-7.488 12.032-4.992 21.824-11.584 29.376-19.776a75.712 75.712 0 0 0 16.512-28.224c3.456-10.624 5.184-21.44 5.184-32.448a103.68 103.68 0 0 0-5.184-32.64c-3.456-10.496-8.96-19.84-16.512-28.032-7.552-8.192-17.344-14.784-29.376-19.776-12.032-4.992-26.624-7.488-43.776-7.488h-98.048a25.6 25.6 0 0 0-25.6 25.6v231.232a30.144 30.144 0 1 0 60.288 0z m46.848-127.808h-46.848v-82.176h46.848c6.912 0 13.568 0.512 19.968 1.536 6.4 1.024 12.032 3.008 16.896 5.952 4.864 2.944 8.768 7.104 11.712 12.48 2.944 5.376 4.416 12.416 4.416 21.12 0 8.704-1.472 15.744-4.416 21.12-2.944 5.376-6.848 9.536-11.712 12.48-4.864 2.944-10.496 4.928-16.896 5.952-6.4 1.024-13.056 1.536-19.968 1.536z" fill="#FBA989" /><path d="M713.344 132.4416l176.128 188.48a12.8 12.8 0 0 1-9.3568 21.5424H742.4a51.2 51.2 0 0 1-51.2-51.2V141.184a12.8 12.8 0 0 1 22.144-8.7424z" fill="#DCDCDC" /></svg>