<?xml version="1.0" standalone="no"?><!DOCTYPE svg PUBLIC "-//W3C//DTD SVG 1.1//EN" "http://www.w3.org/Graphics/SVG/1.1/DTD/svg11.dtd"><svg class="icon" width="200px" height="200.00px" viewBox="0 0 1024 1024" version="1.1" xmlns="http://www.w3.org/2000/svg"><path d="M222.3104 128h471.488c10.3808 0 20.3008 4.352 27.4304 12.032l164.48 175.2704a38.784 38.784 0 0 1 10.2912 26.368V800c0 53.0176-42.2272 96-94.3104 96H222.3104C170.24 896 128 853.0176 128 800v-576c0-53.0176 42.2272-96 94.3104-96z" fill="#EDEDED" /><path d="M692.7232 652.8h-44.0448a11.3024 11.3024 0 0 1-11.2896-11.328v-42.7776c0-6.2592 5.056-11.3152 11.2896-11.3152h7.616c-10.1504-60.0192-54.1568-107.2128-110.9888-119.104v2.8416a11.3024 11.3024 0 0 1-11.2896 11.328h-44.032a11.3024 11.3024 0 0 1-11.2896-11.328c-51.648 15.5776-90.2528 60.5952-99.6736 116.2624h5.5296c6.2336 0 11.2768 5.056 11.2768 11.3152v42.7776a11.3024 11.3024 0 0 1-11.2768 11.328h-44.0448a11.3024 11.3024 0 0 1-11.2768-11.328v-42.7776c0-6.2592 5.0432-11.3152 11.2768-11.3152h9.9072c7.5904-53.5936 38.016-100.1984 82.5856-127.168h-51.84a33.5744 33.5744 0 0 1-27.8528 14.8096c-18.368 0-33.3056-14.6688-33.3056-32.704C320 424.2688 334.9376 409.6 353.3056 409.6c14.336 0 26.9696 9.024 31.5136 22.208h93.8752v-3.4688c0-6.272 5.056-11.328 11.2896-11.328h44.032c6.2336 0 11.2896 5.0688 11.2896 11.328v3.4688h93.8752a33.0368 33.0368 0 0 1 14.8864-17.8432 33.9456 33.9456 0 0 1 33.2544 0A32.6912 32.6912 0 0 1 704 442.3168c0 11.648-6.4 22.528-16.6784 28.3392a33.9328 33.9328 0 0 1-33.2544 0 33.1008 33.1008 0 0 1-11.2512-10.4448h-40.512c44.5696 26.9696 74.9952 73.5744 82.5856 127.168h7.8336c6.2208 0 11.2768 5.056 11.2768 11.3152v42.7776a11.3024 11.3024 0 0 1-11.2768 11.328" fill="#9CBBD3" /><path d="M713.344 132.4416l176.128 188.48a12.8 12.8 0 0 1-9.3568 21.5424H742.4a51.2 51.2 0 0 1-51.2-51.2V141.184a12.8 12.8 0 0 1 22.144-8.7424z" fill="#DCDCDC" /></svg>