<?xml version="1.0" standalone="no"?><!DOCTYPE svg PUBLIC "-//W3C//DTD SVG 1.1//EN" "http://www.w3.org/Graphics/SVG/1.1/DTD/svg11.dtd"><svg class="icon" width="200px" height="200.00px" viewBox="0 0 1024 1024" version="1.1" xmlns="http://www.w3.org/2000/svg"><path d="M222.3104 128h471.488c10.3808 0 20.3008 4.352 27.4304 12.032l164.48 175.2704a38.784 38.784 0 0 1 10.2912 26.368V800c0 53.0176-42.2272 96-94.3104 96H222.3104C170.24 896 128 853.0176 128 800v-576c0-53.0176 42.2272-96 94.3104-96z" fill="#EDEDED" /><path d="M713.344 132.4416l176.128 188.48a12.8 12.8 0 0 1-9.3568 21.5424H742.4a51.2 51.2 0 0 1-51.2-51.2V141.184a12.8 12.8 0 0 1 22.144-8.7424z" fill="#DCDCDC" /><path d="M505.9584 364.8c15.9744 0 27.456 6.272 33.2928 18.5856l0.9728 2.2272 92.7488 235.3536c4.6464 18.624-3.0464 31.744-21.5424 36.736-17.6128 4.7488-31.5648-2.5344-40.4736-20.6848l-1.1392-2.432-21.0048-53.8368a6.4 6.4 0 0 0-4.864-3.968l-1.1008-0.1024h-74.816a6.4 6.4 0 0 0-5.5296 3.1616l-0.4864 1.024-19.8784 54.016c-8.8832 19.84-23.232 28.0064-41.3952 22.784-17.472-5.0176-24.96-17.92-21.376-37.2224l0.5248-2.56 92.5568-232.0128c4.8256-13.952 16.512-21.0688 33.5104-21.0688z m2.8416 76.8c-6.0544-2.2656-12.5312 1.664-14.464 8.8064l-13.4656 49.664-0.2944 1.3568a15.8976 15.8976 0 0 0-0.256 2.7648c0 7.5008 5.1712 13.568 11.52 13.568h28.1728l1.28-0.0768a10.0608 10.0608 0 0 0 2.5088-0.6784c6.016-2.4704 9.1776-10.2016 7.0784-17.28l-14.7072-49.664-0.448-1.3056a12.352 12.352 0 0 0-6.912-7.1424z" fill="#8CBEF2" /></svg>