<?xml version="1.0" standalone="no"?><!DOCTYPE svg PUBLIC "-//W3C//DTD SVG 1.1//EN" "http://www.w3.org/Graphics/SVG/1.1/DTD/svg11.dtd"><svg class="icon" width="200px" height="200.00px" viewBox="0 0 1024 1024" version="1.1" xmlns="http://www.w3.org/2000/svg"><path d="M222.3104 128h471.488c10.3808 0 20.3008 4.352 27.4304 12.032l164.48 175.2704a38.784 38.784 0 0 1 10.2912 26.368V800c0 53.0176-42.2272 96-94.3104 96H222.3104C170.24 896 128 853.0176 128 800v-576c0-53.0176 42.2272-96 94.3104-96z" fill="#EDEDED" /><path d="M531.9552 571.52c0-9.344 1.9584-17.536 5.8624-25.3312a60.4416 60.4416 0 0 1 15.6544-19.4816c18.7776-16.3712 30.1312-26.88 33.6512-30.784 9.3952-12.48 14.4768-28.4544 14.4768-47.9488 0-23.7696-7.8208-42.4832-23.4752-56.1152C562.4704 377.8304 541.7344 371.2 516.3008 371.2c-28.9536 0-51.648 8.192-68.48 24.5504-17.2032 16.384-25.4464 38.976-25.4464 67.8144 0.7296 12.1472 6.016 19.392 20.928 20.2752 14.8992 0.8832 23.7056-12.8256 23.7056-20.2752 0-16.3712 3.1232-29.2224 9.7792-38.1952 7.424-10.9056 19.5584-15.9744 36.7744-15.9744 13.312 0 23.872 3.5072 31.3088 10.9184 7.04 7.3984 10.9568 17.536 10.9568 30.4 0 9.728-3.5328 19.0976-10.5728 27.6608l-4.6976 5.4656c-25.4208 22.6048-40.6912 38.976-45.7728 49.4976-5.4784 10.5216-7.8208 23.3856-7.8208 38.1952 0.2816 14.0672 7.6928 21.0944 22.2464 21.0944s22.144-7.04 22.7456-21.0944zM506.2272 665.6c7.936 0 14.4384-2.5088 19.8656-7.5264 5.4144-5.0304 8.3072-11.84 8.3072-19.7248 0-7.8976-2.8928-14.3488-7.9488-19.3664-5.4144-5.0304-12.288-7.5392-20.224-7.5392-7.9616 0-14.464 2.5088-19.8784 7.5392-5.4144 5.0176-7.9488 11.4688-7.9488 19.3664 0 7.8848 2.5344 14.336 7.9488 19.3664 5.4144 5.0176 11.9168 7.8848 19.8656 7.8848z" fill="#8497A6" opacity=".9" /><path d="M713.344 132.4416l176.128 188.48a12.8 12.8 0 0 1-9.3568 21.5424H742.4a51.2 51.2 0 0 1-51.2-51.2V141.184a12.8 12.8 0 0 1 22.144-8.7424z" fill="#DCDCDC" /></svg>