<?xml version="1.0" standalone="no"?><!DOCTYPE svg PUBLIC "-//W3C//DTD SVG 1.1//EN" "http://www.w3.org/Graphics/SVG/1.1/DTD/svg11.dtd"><svg class="icon" width="200px" height="200.00px" viewBox="0 0 1024 1024" version="1.1" xmlns="http://www.w3.org/2000/svg"><path d="M222.3104 128h471.488c10.3808 0 20.3008 4.352 27.4304 12.032l164.48 175.2704a38.784 38.784 0 0 1 10.2912 26.368V800c0 53.0176-42.2272 96-94.3104 96H222.3104C170.24 896 128 853.0176 128 800v-576c0-53.0176 42.2272-96 94.3104-96z" fill="#EDEDED" /><path d="M565.5168 520.1152c0-13.824-4.032-25.6768-12.0832-35.5968-8.064-9.92-20.1472-14.8736-36.2496-14.8736-7.8976 0-15.1296 1.3184-21.7088 3.968a55.4752 55.4752 0 0 0-17.2672 10.9056c-4.928 4.608-8.8704 10.0096-11.84 16.2048a50.304 50.304 0 0 0-4.928 19.392h104.0768zM640 553.5872l-0.256 10.7264a10.24 10.24 0 0 1-10.24 9.984H461.44c0.6528 7.4496 2.7136 14.1824 6.1696 20.1984s7.8848 11.2512 13.312 15.68c5.4272 4.4288 11.52 7.8848 18.2528 10.368 6.7456 2.4704 13.7344 3.712 20.9664 3.712 12.8256 0 23.68-2.56 32.5504-7.7056 4.5312-2.624 9.8304-7.1168 15.8848-13.504a10.24 10.24 0 0 1 13.184-1.408l39.936 27.1616a10.24 10.24 0 0 1 2.2656 14.8096c-6.1824 7.8464-11.4176 13.6064-15.6672 17.28a117.888 117.888 0 0 1-23.296 15.6928C566.0928 686.336 544.1408 691.2 519.168 691.2c-18.4192 0-35.84-3.0976-52.288-9.2928a125.2352 125.2352 0 0 1-43.1616-27.0976c-12.3264-11.8656-22.0288-26.4832-29.0944-43.84-7.0784-17.3568-10.6112-37.1968-10.6112-59.5072 0-21.6064 3.456-41.1776 10.368-58.7136 6.8992-17.536 16.256-32.4096 28.1088-44.6336a124.48 124.48 0 0 1 41.92-28.416c16.128-6.7328 33.536-10.0992 52.288-10.0992 18.0864 0 34.688 3.2768 49.8176 9.8304a108.4544 108.4544 0 0 1 38.976 28.416c10.8416 12.416 19.3152 27.456 25.3952 45.1712 6.08 17.7152 9.1264 37.9008 9.1264 60.5696z" fill="#A6B9DC" /><path d="M713.344 132.4416l176.128 188.48a12.8 12.8 0 0 1-9.3568 21.5424H742.4a51.2 51.2 0 0 1-51.2-51.2V141.184a12.8 12.8 0 0 1 22.144-8.7424z" fill="#DCDCDC" /></svg>