<?xml version="1.0" standalone="no"?><!DOCTYPE svg PUBLIC "-//W3C//DTD SVG 1.1//EN" "http://www.w3.org/Graphics/SVG/1.1/DTD/svg11.dtd"><svg class="icon" width="200px" height="200.00px" viewBox="0 0 1024 1024" version="1.1" xmlns="http://www.w3.org/2000/svg"><path d="M222.3104 128h471.488c10.3808 0 20.3008 4.352 27.4304 12.032l164.48 175.2704a38.784 38.784 0 0 1 10.2912 26.368V800c0 53.0176-42.2272 96-94.3104 96H222.3104C170.24 896 128 853.0176 128 800v-576c0-53.0176 42.2272-96 94.3104-96z" fill="#EDEDED" /><path d="M459.392 666.3552l51.328-77.4272 57.984 79.7696c14.0544 14.2336 27.4688 17.408 40.2688 9.4976 12.8-7.8976 15.7056-20.032 8.704-36.4288l-70.8608-99.3792 73.2672-105.1904c4.864-16.8448 0.3456-28.1472-13.5296-33.92-13.8752-5.76-26.496-1.3824-37.8496 13.1328l-55.68 84.224-53.632-84.224c-9.8176-14.0416-22.336-18.4192-37.5552-13.12-15.232 5.2864-19.968 16.6016-14.1696 33.92l70.0288 104.8064-68.0448 99.7504c-7.5136 16.3072-4.4672 28.4544 9.1648 36.4288 13.632 7.9872 27.1616 4.032 40.576-11.84z" fill="#65DDA2" /><path d="M713.344 132.4416l176.128 188.48a12.8 12.8 0 0 1-9.3568 21.5424H742.4a51.2 51.2 0 0 1-51.2-51.2V141.184a12.8 12.8 0 0 1 22.144-8.7424z" fill="#DCDCDC" /></svg>