<?xml version="1.0" standalone="no"?><!DOCTYPE svg PUBLIC "-//W3C//DTD SVG 1.1//EN" "http://www.w3.org/Graphics/SVG/1.1/DTD/svg11.dtd"><svg class="icon" width="200px" height="200.00px" viewBox="0 0 1024 1024" version="1.1" xmlns="http://www.w3.org/2000/svg"><path d="M128 128m76.8 0l614.4 0q76.8 0 76.8 76.8l0 614.4q0 76.8-76.8 76.8l-614.4 0q-76.8 0-76.8-76.8l0-614.4q0-76.8 76.8-76.8Z" fill="#FFD977" /><path d="M578.56 384a10.24 10.24 0 0 1 10.24 10.24v30.72a10.24 10.24 0 0 1-10.24 10.24h-56.32a10.24 10.24 0 0 1-10.24-10.24V384h66.56zM512 332.8v51.2h-66.56a10.24 10.24 0 0 1-10.24-10.24v-30.72a10.24 10.24 0 0 1 10.24-10.24H512z m-10.24-102.4a10.24 10.24 0 0 1 10.24 10.24V281.6h66.56a10.24 10.24 0 0 1 10.24 10.24v30.72a10.24 10.24 0 0 1-10.24 10.24H512v-51.2h-66.56a10.24 10.24 0 0 1-10.24-10.24v-30.72a10.24 10.24 0 0 1 10.24-10.24h56.32zM458.24 486.4h107.52a10.24 10.24 0 0 1 10.24 10.24V588.8a25.6 25.6 0 0 1-25.6 25.6h-76.8a25.6 25.6 0 0 1-25.6-25.6v-92.16a10.24 10.24 0 0 1 10.24-10.24z" fill="#FFA86A" /></svg>